<mxfile host="app.diagrams.net" modified="2020-08-28T10:30:59.915Z" agent="5.0 (Macintosh; Intel Mac OS X 10_15_5) AppleWebKit/537.36 (KHTML, like Gecko) Chrome/84.0.4147.135 Safari/537.36" etag="g_AsBfDLFbX5UsGExrV1" version="13.5.8" type="github">
  <diagram id="jb7PjQRoLkkpAWrVMl_4" name="Page-1">
    <mxGraphModel dx="1426" dy="1891" grid="1" gridSize="10" guides="1" tooltips="1" connect="1" arrows="1" fold="1" page="1" pageScale="1" pageWidth="827" pageHeight="1169" math="0" shadow="0">
      <root>
        <mxCell id="0" />
        <mxCell id="1" parent="0" />
        <mxCell id="UK1PmcyZP_VTq5YLoOB4-1" value="" style="rounded=0;whiteSpace=wrap;html=1;" vertex="1" parent="1">
          <mxGeometry x="140" y="-580" width="280" height="530" as="geometry" />
        </mxCell>
        <mxCell id="UK1PmcyZP_VTq5YLoOB4-2" value="" style="rounded=0;whiteSpace=wrap;html=1;" vertex="1" parent="1">
          <mxGeometry x="140" y="-90" width="280" height="40" as="geometry" />
        </mxCell>
        <mxCell id="UK1PmcyZP_VTq5YLoOB4-3" value="" style="rounded=0;whiteSpace=wrap;html=1;fillColor=#f8cecc;strokeColor=#b85450;" vertex="1" parent="1">
          <mxGeometry x="140" y="-580" width="280" height="40" as="geometry" />
        </mxCell>
        <mxCell id="UK1PmcyZP_VTq5YLoOB4-5" value="" style="triangle;whiteSpace=wrap;html=1;rotation=-180;" vertex="1" parent="1">
          <mxGeometry x="150" y="-570" width="10" height="20" as="geometry" />
        </mxCell>
        <mxCell id="UK1PmcyZP_VTq5YLoOB4-6" value="" style="whiteSpace=wrap;html=1;aspect=fixed;" vertex="1" parent="1">
          <mxGeometry x="394" y="-570" width="20" height="20" as="geometry" />
        </mxCell>
        <mxCell id="UK1PmcyZP_VTq5YLoOB4-7" value="TextTextText" style="text;html=1;strokeColor=none;fillColor=none;align=center;verticalAlign=middle;whiteSpace=wrap;rounded=0;" vertex="1" parent="1">
          <mxGeometry x="250" y="-570" width="40" height="20" as="geometry" />
        </mxCell>
        <mxCell id="UK1PmcyZP_VTq5YLoOB4-10" value="" style="ellipse;whiteSpace=wrap;html=1;aspect=fixed;fillColor=#f8cecc;strokeColor=#b85450;" vertex="1" parent="1">
          <mxGeometry x="150" y="-82.5" width="25" height="25" as="geometry" />
        </mxCell>
        <mxCell id="UK1PmcyZP_VTq5YLoOB4-11" value="" style="rounded=1;whiteSpace=wrap;html=1;" vertex="1" parent="1">
          <mxGeometry x="190" y="-80" width="190" height="20" as="geometry" />
        </mxCell>
        <mxCell id="UK1PmcyZP_VTq5YLoOB4-12" value="" style="triangle;whiteSpace=wrap;html=1;" vertex="1" parent="1">
          <mxGeometry x="390" y="-80" width="20" height="20" as="geometry" />
        </mxCell>
        <mxCell id="UK1PmcyZP_VTq5YLoOB4-13" value="&lt;h1&gt;Heading&lt;/h1&gt;&lt;p&gt;Lorem ipsum dolor sit amet, consectetur adipisicing elit, sed do eiusmod tempor incididunt ut labore et dolore magna aliqua.&lt;/p&gt;" style="text;html=1;strokeColor=none;fillColor=none;spacing=5;spacingTop=-20;whiteSpace=wrap;overflow=hidden;rounded=0;" vertex="1" parent="1">
          <mxGeometry x="160" y="-520" width="190" height="120" as="geometry" />
        </mxCell>
        <mxCell id="UK1PmcyZP_VTq5YLoOB4-14" value="&lt;h1&gt;Heading&lt;/h1&gt;&lt;p&gt;Lorem ipsum dolor sit amet, consectetur adipisicing elit, sed do eiusmod tempor incididunt ut labore et dolore magna aliqua.&lt;/p&gt;" style="text;html=1;strokeColor=none;fillColor=none;spacing=5;spacingTop=-20;whiteSpace=wrap;overflow=hidden;rounded=0;" vertex="1" parent="1">
          <mxGeometry x="160" y="-400" width="190" height="120" as="geometry" />
        </mxCell>
        <mxCell id="UK1PmcyZP_VTq5YLoOB4-15" value="&lt;h1&gt;Heading&lt;/h1&gt;&lt;p&gt;Lorem ipsum dolor sit amet, consectetur adipisicing elit, sed do eiusmod tempor incididunt ut labore et dolore magna aliqua.&lt;/p&gt;" style="text;html=1;strokeColor=none;fillColor=none;spacing=5;spacingTop=-20;whiteSpace=wrap;overflow=hidden;rounded=0;" vertex="1" parent="1">
          <mxGeometry x="160" y="-270" width="190" height="120" as="geometry" />
        </mxCell>
        <mxCell id="UK1PmcyZP_VTq5YLoOB4-16" value="" style="rounded=0;whiteSpace=wrap;html=1;" vertex="1" parent="1">
          <mxGeometry x="140" y="-540" width="280" height="30" as="geometry" />
        </mxCell>
        <mxCell id="UK1PmcyZP_VTq5YLoOB4-17" value="Text" style="text;html=1;strokeColor=#666666;fillColor=#f5f5f5;align=center;verticalAlign=middle;whiteSpace=wrap;rounded=0;fontColor=#333333;" vertex="1" parent="1">
          <mxGeometry x="150" y="-535" width="40" height="20" as="geometry" />
        </mxCell>
        <mxCell id="UK1PmcyZP_VTq5YLoOB4-18" value="Text" style="text;html=1;strokeColor=#d79b00;fillColor=#ffe6cc;align=center;verticalAlign=middle;whiteSpace=wrap;rounded=0;" vertex="1" parent="1">
          <mxGeometry x="200" y="-535" width="40" height="20" as="geometry" />
        </mxCell>
        <mxCell id="UK1PmcyZP_VTq5YLoOB4-19" value="Text" style="text;html=1;strokeColor=#666666;fillColor=#f5f5f5;align=center;verticalAlign=middle;whiteSpace=wrap;rounded=0;fontColor=#333333;" vertex="1" parent="1">
          <mxGeometry x="250" y="-535" width="40" height="20" as="geometry" />
        </mxCell>
        <mxCell id="UK1PmcyZP_VTq5YLoOB4-20" value="Text" style="text;html=1;strokeColor=#666666;fillColor=#f5f5f5;align=center;verticalAlign=middle;whiteSpace=wrap;rounded=0;fontColor=#333333;" vertex="1" parent="1">
          <mxGeometry x="300" y="-535" width="40" height="20" as="geometry" />
        </mxCell>
        <mxCell id="UK1PmcyZP_VTq5YLoOB4-21" value="Text" style="text;html=1;strokeColor=#666666;fillColor=#f5f5f5;align=center;verticalAlign=middle;whiteSpace=wrap;rounded=0;fontColor=#333333;" vertex="1" parent="1">
          <mxGeometry x="354" y="-535" width="40" height="20" as="geometry" />
        </mxCell>
        <mxCell id="UK1PmcyZP_VTq5YLoOB4-22" value="" style="triangle;whiteSpace=wrap;html=1;rotation=90;fillColor=#647687;strokeColor=#314354;fontColor=#ffffff;" vertex="1" parent="1">
          <mxGeometry x="310" y="-563.75" width="4.37" height="7.5" as="geometry" />
        </mxCell>
        <mxCell id="UK1PmcyZP_VTq5YLoOB4-23" value="" style="rounded=0;whiteSpace=wrap;html=1;fillColor=#e51400;strokeColor=#B20000;fontColor=#ffffff;" vertex="1" parent="1">
          <mxGeometry x="140" y="-100" width="280" height="10" as="geometry" />
        </mxCell>
        <mxCell id="UK1PmcyZP_VTq5YLoOB4-24" value="" style="rounded=0;whiteSpace=wrap;html=1;" vertex="1" parent="1">
          <mxGeometry x="440" y="-580" width="280" height="530" as="geometry" />
        </mxCell>
        <mxCell id="UK1PmcyZP_VTq5YLoOB4-25" value="" style="rounded=0;whiteSpace=wrap;html=1;" vertex="1" parent="1">
          <mxGeometry x="460" y="-556.25" width="240" height="96.25" as="geometry" />
        </mxCell>
        <mxCell id="UK1PmcyZP_VTq5YLoOB4-27" value="" style="triangle;whiteSpace=wrap;html=1;" vertex="1" parent="1">
          <mxGeometry x="565" y="-523.12" width="25" height="30" as="geometry" />
        </mxCell>
      </root>
    </mxGraphModel>
  </diagram>
</mxfile>
